<svg id="Layer_1" data-name="Layer 1" xmlns="http://www.w3.org/2000/svg" viewBox="0 0 1142.76556 180.09704">
  <g>
    <path d="M273.53622,123.54028H187.70246q.66976,13.97476,7.096,20.07515,6.43527,6.10038,16.41854,6.10038,8.42649,0,13.96872-4.21777a19.68571,19.68571,0,0,0,7.31926-10.86725h40.14425a52.53521,52.53521,0,0,1-10.644,23.39988,56.7444,56.7444,0,0,1-20.8475,16.18925A65.96334,65.96334,0,0,1,212.991,180.097q-18.19253,0-32.27591-7.65112a54.63786,54.63786,0,0,1-22.06636-22.06637q-7.983-14.41825-7.983-33.712,0-19.514,7.87438-33.82665a53.93885,53.93885,0,0,1,22.06637-21.95776Q194.79846,53.235,212.991,53.232q18.40071,0,32.37849,7.54251A53.245,53.245,0,0,1,266.99536,81.9539q7.6481,13.63987,7.65112,31.38287A52.06467,52.06467,0,0,1,273.53622,123.54028ZM229.73536,89.27315A24.09335,24.09335,0,0,0,212.991,83.17277q-10.43582,0-17.2995,6.209-6.87876,6.21806-7.76577,18.19254h48.35051Q236.49345,95.37353,229.73536,89.27315Z" fill="#fff"/>
    <path d="M398.95912,60.88314q12.0831,7.65716,19.07349,21.95776Q425.02,97.15054,425.02,116.66755q0,19.29675-6.98739,33.712-6.98737,14.41827-19.07349,22.06637a50.10823,50.10823,0,0,1-27.3944,7.65112q-14.192,0-24.3955-6.43225A37.33758,37.33758,0,0,1,332.30746,156.142V178.5463H294.38372V14.41525h37.92374V77.187a37.395,37.395,0,0,1,14.86176-17.52276q10.2005-6.42621,24.3955-6.43225A50.15909,50.15909,0,0,1,398.95912,60.88314Zm-59.21776,33.712q-7.65715,8.10065-7.65716,22.0724,0,13.74849,7.65716,21.95775,7.64811,8.20927,19.62863,8.20625,12.19171,0,19.62863-7.989,7.42182-7.983,7.42786-22.175,0-14.192-7.42786-22.181-7.43994-7.983-19.62863-7.983Q347.38645,86.50354,339.74136,94.59515Z" fill="#fff"/>
    <path d="M500.98212,60.10476A46.69028,46.69028,0,0,1,525.269,53.45528V94.04H514.40176q-15.088,0-23.39988,6.43225-8.31789,6.43527-8.3209,21.74053v56.3335H444.75724V54.78276H482.681V78.074A53.8361,53.8361,0,0,1,500.98212,60.10476Z" fill="#fff"/>
    <path d="M543.896,5.6599Q550.105.003,560.30849,0,570.509,0,576.721,5.6599a18.50222,18.50222,0,0,1,6.209,14.3006,18.25411,18.25411,0,0,1-6.209,14.08337q-6.209,5.65689-16.4125,5.6599-10.20954,0-16.4125-5.6599a18.234,18.234,0,0,1-6.209-14.08337A18.48206,18.48206,0,0,1,543.896,5.6599Zm35.26274,49.12286V178.5463H541.235V54.78276Z" fill="#fff"/>
    <path d="M701.3655,66.4284q16.18322,13.19637,20.401,36.26438H681.62223a21.161,21.161,0,0,0-7.31926-12.418q-5.54826-4.435-13.96872-4.441a20.27721,20.27721,0,0,0-16.41251,7.87438q-6.44431,7.87437-6.43225,22.9594,0,15.079,6.43225,22.95336a20.26008,20.26008,0,0,0,16.41251,7.87438q8.42649,0,13.96872-4.435a21.15821,21.15821,0,0,0,7.31926-12.424h40.14425q-4.20871,23.071-20.401,36.26438Q685.17324,180.097,661.22124,180.097q-18.19252,0-32.2759-7.65112A54.63782,54.63782,0,0,1,606.879,150.37955q-7.983-14.41825-7.983-33.712,0-19.514,7.87439-33.82665a53.93876,53.93876,0,0,1,22.06636-21.95776q14.192-7.64809,32.38452-7.65112Q685.17023,53.232,701.3655,66.4284Z" fill="#fff"/>
    <path d="M816.47627,178.5463,779.4335,125.978V178.5463H741.50976V14.41525H779.4335v90.05153l37.04277-49.684h44.57926l-49.90125,61.88479,51.0115,61.87875Z" fill="#fff"/>
    <path d="M992.35554,123.54028H906.52178q.66976,13.97476,7.096,20.07515,6.43527,6.10038,16.41854,6.10038,8.42649,0,13.96873-4.21777a19.68575,19.68575,0,0,0,7.31925-10.86725h40.14425a52.53521,52.53521,0,0,1-10.644,23.39988,56.74444,56.74444,0,0,1-20.84749,16.18925,65.96337,65.96337,0,0,1-28.16675,5.87712q-18.19254,0-32.27591-7.65112A54.63782,54.63782,0,0,1,877.468,150.37955q-7.983-14.41825-7.983-33.712,0-19.514,7.87438-33.82665a53.93876,53.93876,0,0,1,22.06636-21.95776q14.192-7.64809,32.38453-7.65112,18.4007,0,32.37848,7.54251A53.245,53.245,0,0,1,985.81468,81.9539q7.6481,13.63987,7.65112,31.38287A52.06391,52.06391,0,0,1,992.35554,123.54028ZM948.55468,89.27315a24.09334,24.09334,0,0,0-16.74437-6.10038q-10.43583,0-17.29951,6.209Q907.632,95.59982,906.745,107.5743h48.3505Q955.31277,95.37353,948.55468,89.27315Z" fill="#fff"/>
    <path d="M130.73156,78.5575s-.0191,2.75524-.01738,3.47583a24.06,24.06,0,0,1-24.14574,24.14573c-7.22581,0-13.54867-2.504-18.55836-8.83322C83.07308,91.10842,77.09969,86.448,65.71747,86.448c-12.08914,0-27.29673,7.835-27.29672,29.82142,0,21.13838,13.73272,30.5562,27.29672,30.5562,13.06778,0,18.44988-7.06433,21.92722-11.07454,6.06655-6.99618,12.3538-9.06493,19.86946-9.04541,9.11088.02366,23.05219,7.997,23.2,24.14574.17124,18.7049.05888,27.70941.05888,27.70941l-38.07351,0,.0996-22.40765s-8.072,24.82614-41.85045,23.91968C25.476,179.38924.00857,158.68071,0,116.63678c-.00831-40.82618,23.77171-62.5785,51.0462-63.434,24.46117-.76725,36.5416,11.74963,41.753,23.92379L92.6995,14.3037l38.07351,0Z" fill="#fff"/>
    <path d="M1142.68787,78.5575s-.0191,2.75524-.01738,3.47583a24.06,24.06,0,0,1-24.14574,24.14573c-7.22581,0-13.54866-2.504-18.55836-8.83322-4.937-6.23742-10.91039-10.89786-22.29261-10.89786-12.08914,0-27.29673,7.835-27.29672,29.82142,0,21.13838,13.73272,30.5562,27.29672,30.5562,13.06778,0,18.44989-7.06433,21.92722-11.07454,6.06655-6.99618,12.35381-9.06493,19.86946-9.04541,9.11088.02366,23.05219,7.997,23.2,24.14574.17124,18.7049.05888,27.70941.05888,27.70941l-38.07351,0,.0996-22.40765s-8.072,24.82614-41.85045,23.91968c-25.47267-.68357-50.94013-21.3921-50.9487-63.436-.00831-40.82618,23.77171-62.5785,51.0462-63.434,24.46117-.76725,36.54161,11.74963,41.753,23.92379l-.09965-62.82288,38.07351,0Z" fill="#fff"/>
  </g>
</svg>
